STARTFONT 2.1
COMMENT Silicon Graphics FREE font
FONT -SGI-Rock-Medium-R-Normal--18-180-72-72-P-99-ISO8859-1
SIZE 18 72 72
FONTBOUNDINGBOX 13 18 1 -5
STARTPROPERTIES 22
_DEC_DEVICE_FONTNAMES "FM=Rock"
FONTNAME_REGISTRY ""
FOUNDRY "SGI"
FAMILY_NAME "Rock"
WEIGHT_NAME "Medium"
SLANT "R"
SETWIDTH_NAME "Normal"
ADD_STYLE_NAME ""
PIXEL_SIZE 18
POINT_SIZE 180
RESOLUTION_X 72
RESOLUTION_Y 72
SPACING "P"
AVERAGE_WIDTH 99
CHARSET_REGISTRY "ISO8859"
CHARSET_ENCODING "1"
CHARSET_COLLECTIONS "ASCII ISO8859-1"
FULL_NAME "Rock"
FONT_ASCENT 13
FONT_DESCENT 5
CAP_HEIGHT 13
X_HEIGHT 9
ENDPROPERTIES
CHARS 190
STARTCHAR space
ENCODING 32
SWIDTH 400 0
DWIDTH 7 0
BBX 1 1 0 0 
BITMAP
00
ENDCHAR
STARTCHAR exclam
ENCODING 33
SWIDTH 258 0
DWIDTH 5 0
BBX 2 14 2 -1
BITMAP
c0
c0
c0
c0
c0
c0
c0
c0
c0
c0
00
c0
c0
40
ENDCHAR
STARTCHAR quotedbl
ENCODING 34
SWIDTH 455 0
DWIDTH 8 0
BBX 6 5 2 8
BITMAP
60
ec
fc
d8
58
ENDCHAR
STARTCHAR numbersign
ENCODING 35
SWIDTH 539 0
DWIDTH 10 0
BBX 8 11 1 1
BITMAP
02
1b
1f
ff
ff
76
7f
ff
7c
6c
24
ENDCHAR
STARTCHAR dollar
ENCODING 36
SWIDTH 562 0
DWIDTH 10 0
BBX 8 15 2 -2
BITMAP
3c
3c
7c
e0
e0
e0
7c
3e
0f
07
3f
fc
f8
18
18
ENDCHAR
STARTCHAR percent
ENCODING 37
SWIDTH 908 0
DWIDTH 16 0
BBX 13 14 1 -1
BITMAP
0020
3070
f870
fee0
cec0
fdc0
ffb0
3378
07e8
0ec8
0ed8
1cf8
1870
0800
ENDCHAR
STARTCHAR ampersand
ENCODING 38
SWIDTH 656 0
DWIDTH 12 0
BBX 10 13 1 -1
BITMAP
1c00
3c00
3000
3000
3000
3800
7c00
6e80
e7c0
e3c0
7fc0
3ec0
1c00
ENDCHAR
STARTCHAR quoteright
ENCODING 39
SWIDTH 291 0
DWIDTH 5 0
BBX 3 5 2 8
BITMAP
e0
e0
c0
c0
c0
ENDCHAR
STARTCHAR parenleft
ENCODING 40
SWIDTH 420 0
DWIDTH 8 0
BBX 6 15 1 -2
BITMAP
18
38
30
70
60
e0
e0
e0
e0
60
70
30
38
1c
08
ENDCHAR
STARTCHAR parenright
ENCODING 41
SWIDTH 416 0
DWIDTH 7 0
BBX 6 15 1 -2
BITMAP
70
30
38
38
18
1c
0c
0c
1c
1c
18
38
70
e0
60
ENDCHAR
STARTCHAR asterisk
ENCODING 42
SWIDTH 586 0
DWIDTH 11 0
BBX 9 9 1 1
BITMAP
1c00
5e00
7f00
fe00
3f00
7f80
3d80
0c00
0c00
ENDCHAR
STARTCHAR plus
ENCODING 43
SWIDTH 630 0
DWIDTH 11 0
BBX 10 8 1 1
BITMAP
0c00
0c00
0c00
ffc0
ffc0
0c00
0c00
0c00
ENDCHAR
STARTCHAR comma
ENCODING 44
SWIDTH 338 0
DWIDTH 6 0
BBX 5 6 1 -3
BITMAP
10
38
38
30
f0
60
ENDCHAR
STARTCHAR minus
ENCODING 45
SWIDTH 608 0
DWIDTH 11 0
BBX 9 2 1 4
BITMAP
ff80
ff80
ENDCHAR
STARTCHAR period
ENCODING 46
SWIDTH 237 0
DWIDTH 4 0
BBX 3 4 1 -1
BITMAP
40
e0
e0
40
ENDCHAR
STARTCHAR slash
ENCODING 47
SWIDTH 862 0
DWIDTH 16 0
BBX 13 15 1 -2
BITMAP
0018
0038
0070
0070
00e0
01c0
0380
0700
0600
0e00
1c00
3800
7000
e000
6000
ENDCHAR
STARTCHAR zero
ENCODING 48
SWIDTH 657 0
DWIDTH 12 0
BBX 10 12 1 0
BITMAP
1f00
3f80
73c0
60c0
e0c0
e0c0
e0c0
e1c0
61c0
7f80
3f00
0e00
ENDCHAR
STARTCHAR one
ENCODING 49
SWIDTH 373 0
DWIDTH 7 0
BBX 4 13 2 -1
BITMAP
30
70
f0
f0
f0
30
30
30
30
30
30
30
30
ENDCHAR
STARTCHAR two
ENCODING 50
SWIDTH 568 0
DWIDTH 10 0
BBX 8 12 2 0
BITMAP
e0
f0
7c
1c
0e
06
06
0e
3c
78
ff
ff
ENDCHAR
STARTCHAR three
ENCODING 51
SWIDTH 464 0
DWIDTH 8 0
BBX 6 15 2 -2
BITMAP
80
e0
f0
38
1c
1c
78
f0
f8
3c
1c
3c
f0
e0
80
ENDCHAR
STARTCHAR four
ENCODING 52
SWIDTH 707 0
DWIDTH 13 0
BBX 11 13 1 0
BITMAP
0180
0380
0780
0f80
0f80
1d80
3980
7180
7fe0
ffe0
7f80
0180
0180
ENDCHAR
STARTCHAR five
ENCODING 53
SWIDTH 563 0
DWIDTH 10 0
BBX 9 13 1 -1
BITMAP
ff80
ff80
e000
f800
fe00
0e00
0700
0700
0e00
1c00
3c00
7800
6000
ENDCHAR
STARTCHAR six
ENCODING 54
SWIDTH 541 0
DWIDTH 10 0
BBX 8 14 1 -1
BITMAP
0c
0e
1c
1c
18
3c
3e
7f
67
63
e3
67
7e
3c
ENDCHAR
STARTCHAR seven
ENCODING 55
SWIDTH 554 0
DWIDTH 10 0
BBX 9 12 1 0
BITMAP
ff80
ff80
0300
0700
0600
0e00
0c00
1c00
1c00
3800
3800
3000
ENDCHAR
STARTCHAR eight
ENCODING 56
SWIDTH 526 0
DWIDTH 9 0
BBX 8 12 1 0
BITMAP
3c
7e
66
e7
7e
7e
7f
e3
e3
e7
7e
3c
ENDCHAR
STARTCHAR nine
ENCODING 57
SWIDTH 518 0
DWIDTH 9 0
BBX 8 13 1 -1
BITMAP
3e
7e
e7
e7
e7
76
3e
1e
1c
1c
38
70
20
ENDCHAR
STARTCHAR colon
ENCODING 58
SWIDTH 243 0
DWIDTH 4 0
BBX 3 8 1 -1
BITMAP
e0
e0
60
00
00
e0
e0
60
ENDCHAR
STARTCHAR semicolon
ENCODING 59
SWIDTH 338 0
DWIDTH 6 0
BBX 5 11 1 -3
BITMAP
30
38
38
00
00
38
38
38
70
f0
40
ENDCHAR
STARTCHAR less
ENCODING 60
SWIDTH 494 0
DWIDTH 9 0
BBX 7 11 1 1
BITMAP
0c
1c
1c
38
70
e0
70
38
1c
0e
06
ENDCHAR
STARTCHAR equal
ENCODING 61
SWIDTH 562 0
DWIDTH 10 0
BBX 8 5 2 3
BITMAP
ff
ff
00
ff
ff
ENDCHAR
STARTCHAR greater
ENCODING 62
SWIDTH 476 0
DWIDTH 9 0
BBX 6 10 2 1
BITMAP
c0
e0
70
38
1c
1c
38
70
e0
c0
ENDCHAR
STARTCHAR question
ENCODING 63
SWIDTH 444 0
DWIDTH 8 0
BBX 6 13 2 -1
BITMAP
e0
f0
78
18
1c
1c
38
70
60
00
60
60
60
ENDCHAR
STARTCHAR at
ENCODING 64
SWIDTH 763 0
DWIDTH 14 0
BBX 12 14 1 -1
BITMAP
0f00
3fc0
39c0
72e0
6760
6f60
ffe0
79e0
7ec0
6e30
7070
3fe0
1fc0
0780
ENDCHAR
STARTCHAR A
ENCODING 65
SWIDTH 803 0
DWIDTH 14 0
BBX 13 13 1 -1
BITMAP
0600
0700
0f80
0f80
0d80
1dc0
19c0
3fe0
3fe0
7070
7030
e038
6010
ENDCHAR
STARTCHAR B
ENCODING 66
SWIDTH 596 0
DWIDTH 11 0
BBX 9 13 1 -1
BITMAP
fe00
7f00
6780
6380
7f00
7e00
7f00
6780
6180
6380
7f00
7e00
7800
ENDCHAR
STARTCHAR C
ENCODING 67
SWIDTH 598 0
DWIDTH 11 0
BBX 9 13 1 -1
BITMAP
0780
0f80
1e00
3800
7000
6000
e000
e000
6000
7800
3f80
0f80
0380
ENDCHAR
STARTCHAR D
ENCODING 68
SWIDTH 635 0
DWIDTH 11 0
BBX 9 12 2 0
BITMAP
e000
fc00
fe00
cf00
c380
c180
c180
c380
c700
df00
fc00
f000
ENDCHAR
STARTCHAR E
ENCODING 69
SWIDTH 474 0
DWIDTH 9 0
BBX 6 13 2 0
BITMAP
60
fc
fc
c0
c0
c0
f8
f8
e0
e0
f0
fc
fc
ENDCHAR
STARTCHAR F
ENCODING 70
SWIDTH 431 0
DWIDTH 8 0
BBX 6 12 2 0
BITMAP
f8
fc
c0
c0
c0
f8
f8
c0
c0
c0
c0
c0
ENDCHAR
STARTCHAR G
ENCODING 71
SWIDTH 627 0
DWIDTH 11 0
BBX 10 12 1 0
BITMAP
0100
0780
0f00
1c00
3800
7000
60c0
e0c0
e0c0
70c0
3fc0
1fc0
ENDCHAR
STARTCHAR H
ENCODING 72
SWIDTH 729 0
DWIDTH 13 0
BBX 12 13 1 -1
BITMAP
e060
e060
e060
e060
e060
ffe0
7fe0
6060
6070
6070
e070
e070
e070
ENDCHAR
STARTCHAR I
ENCODING 73
SWIDTH 242 0
DWIDTH 4 0
BBX 2 13 2 -1
BITMAP
c0
c0
c0
c0
c0
c0
c0
c0
c0
c0
c0
c0
c0
ENDCHAR
STARTCHAR J
ENCODING 74
SWIDTH 380 0
DWIDTH 7 0
BBX 5 15 1 -3
BITMAP
18
18
18
18
18
18
18
18
18
18
38
30
70
e0
60
ENDCHAR
STARTCHAR K
ENCODING 75
SWIDTH 620 0
DWIDTH 11 0
BBX 9 13 2 -1
BITMAP
c600
ce00
dc00
f800
f000
f000
f000
f800
dc00
ce00
c700
c380
c100
ENDCHAR
STARTCHAR L
ENCODING 76
SWIDTH 474 0
DWIDTH 9 0
BBX 6 11 2 0
BITMAP
c0
c0
c0
c0
c0
c0
c0
c0
c0
fc
fc
ENDCHAR
STARTCHAR M
ENCODING 77
SWIDTH 906 0
DWIDTH 16 0
BBX 13 13 1 0
BITMAP
0860
1ce0
1de0
1fe0
3f60
3f70
3730
7630
7030
6038
6018
e018
6008
ENDCHAR
STARTCHAR N
ENCODING 78
SWIDTH 781 0
DWIDTH 14 0
BBX 13 13 1 -1
BITMAP
e030
f030
f830
fc30
6e30
6730
67b0
63b8
61f8
60f8
6078
6038
6000
ENDCHAR
STARTCHAR O
ENCODING 79
SWIDTH 804 0
DWIDTH 14 0
BBX 13 12 1 0
BITMAP
0fc0
1fe0
3cf0
7070
6030
e038
e018
6018
7038
3c70
1fe0
0fc0
ENDCHAR
STARTCHAR P
ENCODING 80
SWIDTH 583 0
DWIDTH 10 0
BBX 9 12 1 0
BITMAP
7000
fe00
7f00
6780
6180
6380
6f00
7e00
7800
6000
6000
6000
ENDCHAR
STARTCHAR Q
ENCODING 81
SWIDTH 794 0
DWIDTH 14 0
BBX 13 14 1 -2
BITMAP
0780
1fe0
3ff0
7030
6038
e038
e038
e038
6070
70f0
3fe0
1ff0
07f8
0030
ENDCHAR
STARTCHAR R
ENCODING 82
SWIDTH 655 0
DWIDTH 12 0
BBX 10 14 1 -1
BITMAP
f000
fe00
ff00
6380
6180
6380
6f00
7e00
7e00
6f00
6780
63c0
60c0
2000
ENDCHAR
STARTCHAR S
ENCODING 83
SWIDTH 509 0
DWIDTH 9 0
BBX 8 14 1 -1
BITMAP
04
1c
3c
70
60
e0
7c
3e
0f
07
1e
7c
70
60
ENDCHAR
STARTCHAR T
ENCODING 84
SWIDTH 674 0
DWIDTH 12 0
BBX 11 12 1 0
BITMAP
ffe0
ffe0
7fe0
0e00
0e00
0e00
0e00
0e00
0e00
0e00
0e00
0e00
ENDCHAR
STARTCHAR U
ENCODING 85
SWIDTH 765 0
DWIDTH 14 0
BBX 13 13 1 0
BITMAP
0030
e030
e030
e030
6038
6030
6030
6070
7070
3060
3de0
1fc0
0f80
ENDCHAR
STARTCHAR V
ENCODING 86
SWIDTH 861 0
DWIDTH 15 0
BBX 13 12 1 0
BITMAP
e008
6018
7018
3838
3830
1c70
0c60
0ee0
06c0
07c0
03c0
0380
ENDCHAR
STARTCHAR W
ENCODING 87
SWIDTH 940 0
DWIDTH 17 0
BBX 13 12 1 0
BITMAP
e008
6018
7018
7038
3030
3b30
1b30
1b70
1ff0
0fe0
0e60
0e60
ENDCHAR
STARTCHAR X
ENCODING 88
SWIDTH 789 0
DWIDTH 14 0
BBX 12 13 2 -1
BITMAP
0020
c070
e0e0
71c0
39c0
1f80
0f00
0f00
0f80
1dc0
38e0
7070
6020
ENDCHAR
STARTCHAR Y
ENCODING 89
SWIDTH 753 0
DWIDTH 14 0
BBX 12 13 1 -1
BITMAP
7030
f8f0
3de0
0fc0
0780
0700
0300
0300
0300
0300
0300
0300
0300
ENDCHAR
STARTCHAR Z
ENCODING 90
SWIDTH 625 0
DWIDTH 11 0
BBX 10 13 1 -1
BITMAP
ff80
7fc0
0380
0300
0700
0e00
0c00
1c00
3800
3000
7000
ffc0
7fc0
ENDCHAR
STARTCHAR bracketleft
ENCODING 91
SWIDTH 393 0
DWIDTH 7 0
BBX 5 15 2 -2
BITMAP
f0
c0
c0
c0
c0
c0
c0
c0
c0
c0
c0
c0
c0
f8
f8
ENDCHAR
STARTCHAR backslash
ENCODING 92
SWIDTH 860 0
DWIDTH 15 0
BBX 12 15 2 -2
BITMAP
e000
6000
7000
3800
1c00
0e00
0e00
0700
0380
01c0
00e0
00f0
0070
0030
0010
ENDCHAR
STARTCHAR bracketright
ENCODING 93
SWIDTH 365 0
DWIDTH 7 0
BBX 4 15 2 -2
BITMAP
f0
30
30
30
30
30
30
30
30
30
30
30
30
f0
f0
ENDCHAR
STARTCHAR asciicircum
ENCODING 94
SWIDTH 566 0
DWIDTH 10 0
BBX 8 6 2 6
BITMAP
18
3c
3c
7e
e7
c6
ENDCHAR
STARTCHAR underscore
ENCODING 95
SWIDTH 812 0
DWIDTH 15 0
BBX 12 3 2 -1
BITMAP
fff0
fff0
fff0
ENDCHAR
STARTCHAR quoteleft
ENCODING 96
SWIDTH 321 0
DWIDTH 6 0
BBX 3 4 2 9
BITMAP
c0
e0
60
60
ENDCHAR
STARTCHAR a
ENCODING 97
SWIDTH 561 0
DWIDTH 10 0
BBX 9 8 1 0
BITMAP
1c00
7c00
7c00
ec00
ee00
ff00
7f80
1b80
ENDCHAR
STARTCHAR b
ENCODING 98
SWIDTH 575 0
DWIDTH 10 0
BBX 9 11 1 0
BITMAP
e000
e000
e000
f800
fe00
ff00
e380
e380
ff00
ff00
fc00
ENDCHAR
STARTCHAR c
ENCODING 99
SWIDTH 474 0
DWIDTH 9 0
BBX 7 10 1 -1
BITMAP
04
1c
3c
70
e0
e0
f0
7c
1e
06
ENDCHAR
STARTCHAR d
ENCODING 100
SWIDTH 536 0
DWIDTH 10 0
BBX 8 12 1 0
BITMAP
03
03
03
03
07
1f
7f
f3
e3
7f
3f
0f
ENDCHAR
STARTCHAR e
ENCODING 101
SWIDTH 537 0
DWIDTH 10 0
BBX 8 8 1 0
BITMAP
1c
7e
7e
e6
ec
7f
3f
1e
ENDCHAR
STARTCHAR f
ENCODING 102
SWIDTH 484 0
DWIDTH 9 0
BBX 6 13 2 0
BITMAP
0c
0c
1c
38
30
fc
fc
30
30
30
30
30
30
ENDCHAR
STARTCHAR g
ENCODING 103
SWIDTH 527 0
DWIDTH 9 0
BBX 7 13 2 -5
BITMAP
1e
7e
fe
c6
e6
fe
3e
06
06
0e
1c
38
30
ENDCHAR
STARTCHAR h
ENCODING 104
SWIDTH 549 0
DWIDTH 10 0
BBX 9 12 1 0
BITMAP
6000
e000
6000
6000
7000
7c00
7e00
6700
6300
6300
6380
6300
ENDCHAR
STARTCHAR i
ENCODING 105
SWIDTH 248 0
DWIDTH 4 0
BBX 2 10 2 0
BITMAP
c0
c0
00
c0
c0
c0
c0
c0
c0
c0
ENDCHAR
STARTCHAR j
ENCODING 106
SWIDTH 316 0
DWIDTH 6 0
BBX 4 14 1 -4
BITMAP
70
30
00
20
30
30
30
30
30
30
30
70
e0
60
ENDCHAR
STARTCHAR k
ENCODING 107
SWIDTH 484 0
DWIDTH 9 0
BBX 7 12 1 0
BITMAP
60
e0
60
64
6e
7e
7c
78
7c
6e
6e
64
ENDCHAR
STARTCHAR l
ENCODING 108
SWIDTH 260 0
DWIDTH 5 0
BBX 2 12 2 0
BITMAP
c0
c0
c0
c0
c0
c0
c0
c0
c0
c0
c0
c0
ENDCHAR
STARTCHAR m
ENCODING 109
SWIDTH 705 0
DWIDTH 13 0
BBX 11 8 1 0
BITMAP
7d00
ffc0
7fc0
66e0
66e0
6660
6660
7660
ENDCHAR
STARTCHAR n
ENCODING 110
SWIDTH 501 0
DWIDTH 9 0
BBX 8 8 1 0
BITMAP
6c
fe
7e
76
66
67
67
67
ENDCHAR
STARTCHAR o
ENCODING 111
SWIDTH 546 0
DWIDTH 10 0
BBX 9 8 1 0
BITMAP
1e00
3f00
7380
6300
e300
7700
7e00
1c00
ENDCHAR
STARTCHAR p
ENCODING 112
SWIDTH 574 0
DWIDTH 10 0
BBX 9 12 1 -4
BITMAP
6000
fe00
ff80
6780
6380
6f00
7e00
7800
6000
6000
6000
6000
ENDCHAR
STARTCHAR q
ENCODING 113
SWIDTH 614 0
DWIDTH 11 0
BBX 9 12 1 -4
BITMAP
0f80
3f80
7980
e180
e180
ff80
3f80
0180
0180
0180
0180
0180
ENDCHAR
STARTCHAR r
ENCODING 114
SWIDTH 414 0
DWIDTH 7 0
BBX 5 9 2 0
BITMAP
08
d8
f8
f0
e0
c0
c0
c0
c0
ENDCHAR
STARTCHAR s
ENCODING 115
SWIDTH 390 0
DWIDTH 7 0
BBX 6 10 1 -1
BITMAP
10
38
70
e0
78
38
1c
38
30
20
ENDCHAR
STARTCHAR t
ENCODING 116
SWIDTH 497 0
DWIDTH 9 0
BBX 8 12 1 -2
BITMAP
18
18
fe
ff
3f
18
18
18
1c
0c
0e
06
ENDCHAR
STARTCHAR u
ENCODING 117
SWIDTH 563 0
DWIDTH 10 0
BBX 9 8 1 0
BITMAP
e380
e300
6300
6300
6300
6700
7f00
3c00
ENDCHAR
STARTCHAR v
ENCODING 118
SWIDTH 553 0
DWIDTH 10 0
BBX 8 9 2 0
BITMAP
42
c7
e6
6e
7e
3c
3c
1c
1c
ENDCHAR
STARTCHAR w
ENCODING 119
SWIDTH 782 0
DWIDTH 14 0
BBX 12 9 1 0
BITMAP
0020
e630
e770
7f70
3fe0
3de0
1dc0
1dc0
1000
ENDCHAR
STARTCHAR x
ENCODING 120
SWIDTH 615 0
DWIDTH 11 0
BBX 9 9 2 0
BITMAP
8200
e700
fe00
7e00
1c00
3e00
3f00
7380
6100
ENDCHAR
STARTCHAR y
ENCODING 121
SWIDTH 559 0
DWIDTH 10 0
BBX 8 10 1 -2
BITMAP
c3
e7
7e
3c
1c
1c
1c
1c
1c
1c
ENDCHAR
STARTCHAR z
ENCODING 122
SWIDTH 524 0
DWIDTH 9 0
BBX 7 8 2 0
BITMAP
fe
fe
fe
38
70
fe
fe
fe
ENDCHAR
STARTCHAR braceleft
ENCODING 123
SWIDTH 408 0
DWIDTH 7 0
BBX 6 15 1 -2
BITMAP
18
38
30
30
30
30
70
e0
70
30
38
38
18
1c
08
ENDCHAR
STARTCHAR bar
ENCODING 124
SWIDTH 250 0
DWIDTH 4 0
BBX 3 15 1 -2
BITMAP
e0
e0
e0
e0
e0
60
60
60
60
60
60
60
60
60
60
ENDCHAR
STARTCHAR braceright
ENCODING 125
SWIDTH 408 0
DWIDTH 7 0
BBX 6 15 1 -2
BITMAP
60
70
30
30
30
30
38
1c
38
38
70
70
60
e0
40
ENDCHAR
STARTCHAR asciitilde
ENCODING 126
SWIDTH 613 0
DWIDTH 11 0
BBX 9 3 1 5
BITMAP
7d80
ff80
6700
ENDCHAR
STARTCHAR exclamdown
ENCODING 161
SWIDTH 258 0
DWIDTH 5 0
BBX 2 14 2 -5
BITMAP
40
c0
c0
00
c0
c0
c0
c0
c0
c0
c0
c0
c0
c0
ENDCHAR
STARTCHAR cent
ENCODING 162
SWIDTH 474 0
DWIDTH 9 0
BBX 10 11 1 0
BITMAP
0600
0600
1f80
3f00
7000
e000
e000
ffc0
3f80
0c00
0c00
ENDCHAR
STARTCHAR sterling
ENCODING 163
SWIDTH 722 0
DWIDTH 13 0
BBX 11 12 2 0
BITMAP
1f00
3f80
3180
3000
2000
3c00
fe00
f000
3000
3820
7fe0
dfc0
ENDCHAR
STARTCHAR currency
ENCODING 164
SWIDTH 722 0
DWIDTH 13 0
BBX 7 8 3 3
BITMAP
86
fc
6c
64
7c
3e
66
40
ENDCHAR
STARTCHAR yen
ENCODING 165
SWIDTH 722 0
DWIDTH 13 0
BBX 9 12 2 0
BITMAP
c180
e380
7300
3b00
1e00
3f80
7f80
0c00
3f00
7f80
0c00
1e00
ENDCHAR
STARTCHAR brokenbar
ENCODING 166
SWIDTH 250 0
DWIDTH 4 0
BBX 3 15 1 -2
BITMAP
e0
e0
e0
e0
e0
60
60
00
60
60
60
60
60
60
60
ENDCHAR
STARTCHAR section
ENCODING 167
SWIDTH 722 0
DWIDTH 13 0
BBX 10 16 2 -4
BITMAP
3f00
7f80
e180
e000
7800
fe00
cf80
c1c0
e0c0
78c0
3f80
0fc0
00c0
61c0
7f80
3f00
ENDCHAR
STARTCHAR dieresis
ENCODING 168
SWIDTH 722 0
DWIDTH 13 0
BBX 5 5 5 7
BITMAP
88
d8
d8
d8
c8
ENDCHAR
STARTCHAR copyright
ENCODING 169
SWIDTH 722 0
DWIDTH 13 0
BBX 11 12 2 -1
BITMAP
1f00
3fc0
70e0
e660
cf60
d860
d860
df60
cee0
e1c0
7f80
3f00
ENDCHAR
STARTCHAR ordfeminine
ENCODING 170
SWIDTH 722 0
DWIDTH 13 0
BBX 7 9 5 3
BITMAP
3a
7e
ee
c6
ce
fe
76
fe
fe
ENDCHAR
STARTCHAR guillemotleft
ENCODING 171
SWIDTH 722 0
DWIDTH 13 0
BBX 11 12 1 -1
BITMAP
0c60
0c60
3dc0
71c0
7380
e700
e700
e380
71c0
38c0
1ce0
0c60
ENDCHAR
STARTCHAR logicalnot
ENCODING 172
SWIDTH 722 0
DWIDTH 13 0
BBX 9 5 3 3
BITMAP
7f00
ff80
0180
0180
0100
ENDCHAR
STARTCHAR hyphen
ENCODING 173
SWIDTH 722 0
DWIDTH 13 0
BBX 8 2 4 4
BITMAP
7f
fe
ENDCHAR
STARTCHAR registered
ENCODING 174
SWIDTH 722 0
DWIDTH 13 0
BBX 11 12 2 -1
BITMAP
1f00
3fc0
70e0
ee60
df60
db60
de60
df60
db60
e0c0
7f80
3f00
ENDCHAR
STARTCHAR macron
ENCODING 175
SWIDTH 722 0
DWIDTH 13 0
BBX 6 2 5 9
BITMAP
f8
fc
ENDCHAR
STARTCHAR degree
ENCODING 176
SWIDTH 722 0
DWIDTH 13 0
BBX 5 6 5 5
BITMAP
30
f8
d8
d8
f8
70
ENDCHAR
STARTCHAR plusminus
ENCODING 177
SWIDTH 722 0
DWIDTH 13 0
BBX 10 12 2 0
BITMAP
0800
0c00
0c00
0c00
7f80
ffc0
0c00
0c00
0800
0000
ffc0
ff80
ENDCHAR
STARTCHAR twosuperior
ENCODING 178
SWIDTH 722 0
DWIDTH 13 0
BBX 4 6 4 6
BITMAP
60
f0
30
60
f0
e0
ENDCHAR
STARTCHAR threesuperior
ENCODING 179
SWIDTH 722 0
DWIDTH 13 0
BBX 4 6 6 6
BITMAP
f0
70
e0
30
f0
e0
ENDCHAR
STARTCHAR acute
ENCODING 180
SWIDTH 722 0
DWIDTH 13 0
BBX 3 4 5 8
BITMAP
60
60
c0
c0
ENDCHAR
STARTCHAR mu
ENCODING 181
SWIDTH 563 0
DWIDTH 10 0
BBX 8 11 2 -3
BITMAP
c0
c6
c6
c6
c6
ce
fe
f7
c0
c0
80
ENDCHAR
STARTCHAR paragraph
ENCODING 182
SWIDTH 722 0
DWIDTH 13 0
BBX 11 14 2 -2
BITMAP
1fe0
7fc0
f980
d980
d980
d980
d980
7980
3980
1980
1980
1980
1980
38c0
ENDCHAR
STARTCHAR periodcentered
ENCODING 183
SWIDTH 722 0
DWIDTH 13 0
BBX 3 3 5 3
BITMAP
60
e0
60
ENDCHAR
STARTCHAR cedilla
ENCODING 184
SWIDTH 722 0
DWIDTH 13 0
BBX 4 3 5 -3
BITMAP
60
30
f0
ENDCHAR
STARTCHAR onesuperior
ENCODING 185
SWIDTH 722 0
DWIDTH 13 0
BBX 3 6 7 5
BITMAP
60
e0
e0
60
60
60
ENDCHAR
STARTCHAR ordmasculine
ENCODING 186
SWIDTH 722 0
DWIDTH 13 0
BBX 7 9 3 3
BITMAP
38
7c
ee
c6
c6
ee
7c
fe
fe
ENDCHAR
STARTCHAR guillemotright
ENCODING 187
SWIDTH 722 0
DWIDTH 13 0
BBX 11 12 2 -1
BITMAP
c600
c700
7780
71c0
39c0
1ce0
1ce0
38e0
71c0
6380
e700
c600
ENDCHAR
STARTCHAR onequarter
ENCODING 188
SWIDTH 722 0
DWIDTH 13 0
BBX 11 13 1 -1
BITMAP
3000
7000
7020
3060
31c0
3380
0700
0e60
38e0
71e0
c360
03e0
0060
ENDCHAR
STARTCHAR onehalf
ENCODING 189
SWIDTH 722 0
DWIDTH 13 0
BBX 11 14 1 -2
BITMAP
3000
7000
7020
3060
31c0
3380
0700
0e00
39c0
73c0
c0c0
0180
03e0
03c0
ENDCHAR
STARTCHAR threequarters
ENCODING 190
SWIDTH 722 0
DWIDTH 13 0
BBX 11 13 1 -1
BITMAP
7800
3800
7020
1860
79c0
7380
0700
0e60
38e0
71e0
c360
03e0
0060
ENDCHAR
STARTCHAR questiondown
ENCODING 191
SWIDTH 444 0
DWIDTH 8 0
BBX 6 13 4 -4
BITMAP
18
18
18
00
18
38
70
e0
e0
60
78
3c
1c
ENDCHAR
STARTCHAR Agrave
ENCODING 192
SWIDTH 803 0
DWIDTH 14 0
BBX 11 14 2 -1
BITMAP
1800
0c00
0000
0400
0e00
1f00
1b00
3b80
3380
7fc0
7fc0
e0e0
e060
c040
ENDCHAR
STARTCHAR Aacute
ENCODING 193
SWIDTH 803 0
DWIDTH 14 0
BBX 11 14 2 -1
BITMAP
0300
0600
0000
0400
0e00
1f00
1b00
3b80
3380
7fc0
7fc0
e0e0
e060
c040
ENDCHAR
STARTCHAR Acircumflex
ENCODING 194
SWIDTH 803 0
DWIDTH 14 0
BBX 11 14 2 -1
BITMAP
0e00
1b00
0000
0400
0e00
1f00
1b00
3b80
3380
7fc0
7fc0
e0e0
e060
c040
ENDCHAR
STARTCHAR Atilde
ENCODING 195
SWIDTH 803 0
DWIDTH 14 0
BBX 11 14 2 -1
BITMAP
1d00
1700
0000
0400
0e00
1f00
1b00
3b80
3380
7fc0
7fc0
e0e0
e060
c040
ENDCHAR
STARTCHAR Adieresis
ENCODING 196
SWIDTH 803 0
DWIDTH 14 0
BBX 11 14 2 -1
BITMAP
1b00
1b00
0000
0400
0e00
1f00
1b00
3b80
3380
7fc0
7fc0
e0e0
e060
c040
ENDCHAR
STARTCHAR Aring
ENCODING 197
SWIDTH 803 0
DWIDTH 14 0
BBX 11 14 2 -1
BITMAP
0e00
1b00
0e00
0400
0e00
1f00
1b00
3b80
3380
7fc0
7fc0
e0e0
e060
c040
ENDCHAR
STARTCHAR AE
ENCODING 198
SWIDTH 474 0
DWIDTH 9 0
BBX 12 12 1 0
BITMAP
07f0
0ff0
1f00
1b00
3300
33c0
33e0
7f00
7f00
6380
63f0
e3f0
ENDCHAR
STARTCHAR Ccedilla
ENCODING 199
SWIDTH 598 0
DWIDTH 11 0
BBX 9 16 1 -4
BITMAP
0780
0f80
1e00
3800
7000
6000
e000
e000
6000
7800
3f80
0f80
0700
0300
0f00
0c00
ENDCHAR
STARTCHAR Egrave
ENCODING 200
SWIDTH 474 0
DWIDTH 9 0
BBX 6 13 2 0
BITMAP
60
30
00
fc
fc
c0
c0
f8
f8
c0
f0
fc
fc
ENDCHAR
STARTCHAR Eacute
ENCODING 201
SWIDTH 474 0
DWIDTH 9 0
BBX 6 13 3 0
BITMAP
18
30
00
fc
fc
c0
c0
f8
f8
c0
f0
fc
fc
ENDCHAR
STARTCHAR Ecircumflex
ENCODING 202
SWIDTH 474 0
DWIDTH 9 0
BBX 6 13 5 0
BITMAP
38
6c
00
fc
fc
e0
c0
f8
f8
e0
c0
fc
fc
ENDCHAR
STARTCHAR Edieresis
ENCODING 203
SWIDTH 474 0
DWIDTH 9 0
BBX 6 13 5 0
BITMAP
6c
6c
00
fc
fc
e0
c0
f8
f8
e0
c0
fc
fc
ENDCHAR
STARTCHAR Igrave
ENCODING 204
SWIDTH 242 0
DWIDTH 4 0
BBX 3 13 2 0
BITMAP
c0
60
00
60
60
60
60
60
60
60
60
60
60
ENDCHAR
STARTCHAR Iacute
ENCODING 205
SWIDTH 242 0
DWIDTH 4 0
BBX 3 13 6 0
BITMAP
c0
60
00
60
60
60
60
60
60
60
60
60
60
ENDCHAR
STARTCHAR Icircumflex
ENCODING 206
SWIDTH 242 0
DWIDTH 4 0
BBX 5 13 6 0
BITMAP
70
d8
00
60
60
60
60
60
60
60
60
60
60
ENDCHAR
STARTCHAR Idieresis
ENCODING 207
SWIDTH 242 0
DWIDTH 4 0
BBX 5 13 6 0
BITMAP
d8
d8
00
60
60
60
60
60
60
60
60
60
60
ENDCHAR
STARTCHAR Eth
ENCODING 208
SWIDTH 635 0
DWIDTH 11 0
BBX 11 12 1 0
BITMAP
3800
3f00
3f80
33c0
30e0
fc60
fc60
30e0
31c0
37c0
3f00
3c00
ENDCHAR
STARTCHAR Ntilde
ENCODING 209
SWIDTH 781 0
DWIDTH 14 0
BBX 13 14 1 -1
BITMAP
0e80
0b80
0000
f030
f830
fc30
6e30
6730
67b0
63b8
61f8
60f8
6078
6000
ENDCHAR
STARTCHAR Ograve
ENCODING 210
SWIDTH 804 0
DWIDTH 14 0
BBX 12 13 2 0
BITMAP
0c00
0600
0000
1f80
3fc0
70e0
e060
c070
c030
c070
f0f0
7fe0
1f80
ENDCHAR
STARTCHAR Oacute
ENCODING 211
SWIDTH 804 0
DWIDTH 14 0
BBX 12 13 2 0
BITMAP
0300
0600
0000
1f80
3fc0
70e0
e060
c070
c030
c070
f0f0
7fe0
1f80
ENDCHAR
STARTCHAR Ocircumflex
ENCODING 212
SWIDTH 804 0
DWIDTH 14 0
BBX 12 13 2 0
BITMAP
0700
0d80
0000
1f80
3fc0
70e0
e060
c070
c030
c070
f0f0
7fe0
1f80
ENDCHAR
STARTCHAR Otilde
ENCODING 213
SWIDTH 804 0
DWIDTH 14 0
BBX 12 13 2 0
BITMAP
0e80
0b80
0000
1f80
3fc0
70e0
e060
c070
c030
c070
f0f0
7fe0
1f80
ENDCHAR
STARTCHAR Odieresis
ENCODING 214
SWIDTH 804 0
DWIDTH 14 0
BBX 12 13 2 0
BITMAP
0d80
0d80
0000
1f80
3fc0
70e0
e060
c070
c030
c070
f0f0
7fe0
1f80
ENDCHAR
STARTCHAR multiply
ENCODING 215
SWIDTH 722 0
DWIDTH 13 0
BBX 8 9 3 0
BITMAP
82
c6
74
3c
1c
3e
77
63
40
ENDCHAR
STARTCHAR Oslash
ENCODING 216
SWIDTH 804 0
DWIDTH 14 0
BBX 13 12 1 0
BITMAP
0fd8
1ff8
3c30
70f0
61d0
e398
e718
6e18
7c38
3870
7fe0
6fc0
ENDCHAR
STARTCHAR Ugrave
ENCODING 217
SWIDTH 765 0
DWIDTH 14 0
BBX 12 13 1 0
BITMAP
0c00
0600
0030
e030
e030
6030
6030
6030
6070
7070
3de0
3fe0
0f80
ENDCHAR
STARTCHAR Uacute
ENCODING 218
SWIDTH 765 0
DWIDTH 14 0
BBX 12 13 1 0
BITMAP
0300
0600
0030
e030
e030
6030
6030
6030
6070
7070
3de0
3fe0
0f80
ENDCHAR
STARTCHAR Ucircumflex
ENCODING 219
SWIDTH 765 0
DWIDTH 14 0
BBX 12 13 1 0
BITMAP
0700
0d80
0030
e030
e030
6030
6030
6030
6070
7070
3de0
3fe0
0f80
ENDCHAR
STARTCHAR Udieresis
ENCODING 220
SWIDTH 765 0
DWIDTH 14 0
BBX 12 13 1 0
BITMAP
0d80
0d80
0030
e030
e030
6030
6030
6030
6070
7070
3de0
3fe0
0f80
ENDCHAR
STARTCHAR Yacute
ENCODING 221
SWIDTH 753 0
DWIDTH 14 0
BBX 11 13 2 0
BITMAP
0300
0600
c060
e0e0
79c0
1f80
0f00
0e00
0600
0600
0600
0600
0600
ENDCHAR
STARTCHAR Thorn
ENCODING 222
SWIDTH 753 0
DWIDTH 14 0
BBX 9 12 4 0
BITMAP
f000
6000
7e00
7f00
6380
6180
6180
6780
7f00
7c00
6000
f000
ENDCHAR
STARTCHAR germandbls
ENCODING 223
SWIDTH 722 0
DWIDTH 13 0
BBX 10 12 2 0
BITMAP
1e00
3f00
7300
6700
6e00
6f00
6380
61c0
60c0
60c0
67c0
c780
ENDCHAR
STARTCHAR agrave
ENCODING 224
SWIDTH 561 0
DWIDTH 10 0
BBX 9 11 2 0
BITMAP
1800
0c00
0000
1e80
7f80
7380
e380
c380
ff80
7f80
1b80
ENDCHAR
STARTCHAR aacute
ENCODING 225
SWIDTH 561 0
DWIDTH 10 0
BBX 9 11 2 0
BITMAP
0600
0c00
0000
1e80
7f80
7380
e380
c380
ff80
7f80
1b80
ENDCHAR
STARTCHAR acircumflex
ENCODING 226
SWIDTH 561 0
DWIDTH 10 0
BBX 9 11 2 0
BITMAP
0e00
1b00
0000
1e80
7f80
7380
e380
c380
ff80
7f80
1b80
ENDCHAR
STARTCHAR atilde
ENCODING 227
SWIDTH 561 0
DWIDTH 10 0
BBX 9 11 2 0
BITMAP
1d00
1700
0000
1e80
7f80
7380
e380
c380
ff80
7f80
1b80
ENDCHAR
STARTCHAR adieresis
ENCODING 228
SWIDTH 561 0
DWIDTH 10 0
BBX 9 11 2 0
BITMAP
1b00
1b00
0000
1e80
7f80
7380
e380
c380
ff80
7f80
1b80
ENDCHAR
STARTCHAR aring
ENCODING 229
SWIDTH 561 0
DWIDTH 10 0
BBX 9 12 2 0
BITMAP
0e00
1b00
0e00
0000
1e80
7f80
7380
e380
c380
ff80
7f80
1b80
ENDCHAR
STARTCHAR ae
ENCODING 230
SWIDTH 722 0
DWIDTH 13 0
BBX 11 9 2 0
BITMAP
7b80
ffc0
0e60
7fe0
ffe0
ce00
ce00
ffe0
7bc0
ENDCHAR
STARTCHAR ccedilla
ENCODING 231
SWIDTH 474 0
DWIDTH 9 0
BBX 7 12 4 -3
BITMAP
04
1c
3c
70
e0
e0
f0
7c
1e
1e
0c
3c
ENDCHAR
STARTCHAR egrave
ENCODING 232
SWIDTH 537 0
DWIDTH 10 0
BBX 8 11 1 0
BITMAP
18
0c
00
1c
7e
7e
e6
ec
7f
3f
1e
ENDCHAR
STARTCHAR eacute
ENCODING 233
SWIDTH 537 0
DWIDTH 10 0
BBX 8 11 1 0
BITMAP
0c
18
00
1c
7e
7e
e6
ec
7f
3f
1e
ENDCHAR
STARTCHAR ecircumflex
ENCODING 234
SWIDTH 537 0
DWIDTH 10 0
BBX 8 11 1 0
BITMAP
1c
36
00
1c
7e
7e
e6
ec
7f
3f
1e
ENDCHAR
STARTCHAR edieresis
ENCODING 235
SWIDTH 537 0
DWIDTH 10 0
BBX 8 11 1 0
BITMAP
36
36
00
1c
7e
7e
e6
ec
7f
3f
1e
ENDCHAR
STARTCHAR igrave
ENCODING 236
SWIDTH 248 0
DWIDTH 4 0
BBX 3 10 7 0
BITMAP
c0
60
00
60
60
60
60
60
60
60
ENDCHAR
STARTCHAR iacute
ENCODING 237
SWIDTH 248 0
DWIDTH 4 0
BBX 3 10 8 0
BITMAP
60
c0
00
c0
c0
c0
c0
c0
c0
c0
ENDCHAR
STARTCHAR icircumflex
ENCODING 238
SWIDTH 248 0
DWIDTH 4 0
BBX 5 10 3 0
BITMAP
70
d8
00
60
60
60
60
60
60
60
ENDCHAR
STARTCHAR idieresis
ENCODING 239
SWIDTH 248 0
DWIDTH 4 0
BBX 5 10 4 0
BITMAP
d8
d8
00
60
60
60
60
60
60
60
ENDCHAR
STARTCHAR eth
ENCODING 240
SWIDTH 546 0
DWIDTH 10 0
BBX 9 13 1 0
BITMAP
3300
3f00
1e00
3300
0300
1f80
3f80
7380
6300
e300
7700
7e00
1c00
ENDCHAR
STARTCHAR ntilde
ENCODING 241
SWIDTH 501 0
DWIDTH 9 0
BBX 8 11 1 0
BITMAP
74
5c
00
6c
fe
7e
76
66
67
67
67
ENDCHAR
STARTCHAR ograve
ENCODING 242
SWIDTH 546 0
DWIDTH 10 0
BBX 9 11 1 0
BITMAP
1800
0c00
0000
1e00
3f00
7380
6300
e300
7700
7e00
1c00
ENDCHAR
STARTCHAR oacute
ENCODING 243
SWIDTH 546 0
DWIDTH 10 0
BBX 9 11 2 0
BITMAP
0600
0c00
0000
1e00
3f00
7380
6300
e300
7700
7e00
1c00
ENDCHAR
STARTCHAR ocircumflex
ENCODING 244
SWIDTH 546 0
DWIDTH 10 0
BBX 9 11 2 0
BITMAP
0e00
1b00
0000
1e00
3f00
7380
6300
e300
7700
7e00
1c00
ENDCHAR
STARTCHAR otilde
ENCODING 245
SWIDTH 546 0
DWIDTH 10 0
BBX 9 11 2 0
BITMAP
1d00
1700
0000
1e00
3f00
7380
6300
e300
7700
7e00
1c00
ENDCHAR
STARTCHAR odieresis
ENCODING 246
SWIDTH 546 0
DWIDTH 10 0
BBX 9 11 2 0
BITMAP
1b00
1b00
0000
1e00
3f00
7380
6300
e300
7700
7e00
1c00
ENDCHAR
STARTCHAR divide
ENCODING 247
SWIDTH 722 0
DWIDTH 13 0
BBX 9 10 2 0
BITMAP
0800
0c00
0000
0000
ff80
ff00
0000
0000
1800
1800
ENDCHAR
STARTCHAR oslash
ENCODING 248
SWIDTH 546 0
DWIDTH 10 0
BBX 9 9 2 0
BITMAP
0180
1f80
3f00
7780
6d80
f980
7780
ff00
de00
ENDCHAR
STARTCHAR ugrave
ENCODING 249
SWIDTH 563 0
DWIDTH 10 0
BBX 9 11 1 0
BITMAP
1800
0c00
0000
e380
e300
6300
6300
6300
6700
7f00
3c00
ENDCHAR
STARTCHAR uacute
ENCODING 250
SWIDTH 563 0
DWIDTH 10 0
BBX 9 11 1 0
BITMAP
0c00
1800
0000
e380
e300
6300
6300
6300
6700
7f00
3c00
ENDCHAR
STARTCHAR ucircumflex
ENCODING 251
SWIDTH 563 0
DWIDTH 10 0
BBX 9 11 1 0
BITMAP
1c00
3600
0000
e380
e300
6300
6300
6300
6700
7f00
3c00
ENDCHAR
STARTCHAR udieresis
ENCODING 252
SWIDTH 563 0
DWIDTH 10 0
BBX 9 11 1 0
BITMAP
2600
3600
0000
e380
e300
6300
6300
6300
6700
7f00
3c00
ENDCHAR
STARTCHAR yacute
ENCODING 253
SWIDTH 559 0
DWIDTH 10 0
BBX 8 13 1 -2
BITMAP
0c
18
00
c3
e7
7e
3c
1c
1c
1c
1c
1c
1c
ENDCHAR
STARTCHAR thorn
ENCODING 254
SWIDTH 559 0
DWIDTH 10 0
BBX 9 13 3 -2
BITMAP
e000
6000
7e00
7f00
6380
6180
6380
6700
7f00
7c00
6000
e000
f000
ENDCHAR
STARTCHAR ydieresis
ENCODING 255
SWIDTH 559 0
DWIDTH 10 0
BBX 8 13 1 -2
BITMAP
36
36
00
c3
e7
7e
3c
1c
1c
1c
1c
1c
1c
ENDCHAR
ENDFONT
